<mxfile host="app.diagrams.net" modified="2021-04-11T17:50:35.636Z" agent="5.0 (Windows NT 10.0; Win64; x64) AppleWebKit/537.36 (KHTML, like Gecko) Chrome/89.0.4389.114 Safari/537.36" etag="2qwUvz3lQj-HsEi-6vDG" version="14.5.10" type="github">
  <diagram name="Page-1" id="edf60f1a-56cd-e834-aa8a-f176f3a09ee4">
    <mxGraphModel dx="1422" dy="762" grid="1" gridSize="10" guides="1" tooltips="1" connect="1" arrows="1" fold="1" page="1" pageScale="1" pageWidth="1100" pageHeight="850" background="#ffffff" math="0" shadow="0">
      <root>
        <mxCell id="0" />
        <mxCell id="1" parent="0" />
        <mxCell id="YIvmek2fyZ96y0kqWUnA-6" value="" style="edgeStyle=orthogonalEdgeStyle;rounded=0;orthogonalLoop=1;jettySize=auto;html=1;" edge="1" parent="1" source="YIvmek2fyZ96y0kqWUnA-1" target="YIvmek2fyZ96y0kqWUnA-5">
          <mxGeometry relative="1" as="geometry" />
        </mxCell>
        <mxCell id="YIvmek2fyZ96y0kqWUnA-1" value="Charging?" style="rhombus;whiteSpace=wrap;html=1;" vertex="1" parent="1">
          <mxGeometry x="420" y="110" width="80" height="80" as="geometry" />
        </mxCell>
        <mxCell id="YIvmek2fyZ96y0kqWUnA-2" value="" style="endArrow=classic;html=1;exitX=1;exitY=0.5;exitDx=0;exitDy=0;entryX=0.5;entryY=0;entryDx=0;entryDy=0;" edge="1" parent="1" source="YIvmek2fyZ96y0kqWUnA-1" target="YIvmek2fyZ96y0kqWUnA-1">
          <mxGeometry width="50" height="50" relative="1" as="geometry">
            <mxPoint x="520" y="170" as="sourcePoint" />
            <mxPoint x="580" y="140" as="targetPoint" />
            <Array as="points">
              <mxPoint x="540" y="150" />
              <mxPoint x="540" y="80" />
              <mxPoint x="460" y="80" />
            </Array>
          </mxGeometry>
        </mxCell>
        <mxCell id="YIvmek2fyZ96y0kqWUnA-3" value="Yes" style="text;html=1;strokeColor=none;fillColor=none;align=center;verticalAlign=middle;whiteSpace=wrap;rounded=0;" vertex="1" parent="1">
          <mxGeometry x="540" y="110" width="40" height="20" as="geometry" />
        </mxCell>
        <mxCell id="YIvmek2fyZ96y0kqWUnA-9" value="" style="edgeStyle=orthogonalEdgeStyle;rounded=0;orthogonalLoop=1;jettySize=auto;html=1;" edge="1" parent="1" source="YIvmek2fyZ96y0kqWUnA-5" target="YIvmek2fyZ96y0kqWUnA-8">
          <mxGeometry relative="1" as="geometry" />
        </mxCell>
        <mxCell id="YIvmek2fyZ96y0kqWUnA-15" value="" style="edgeStyle=orthogonalEdgeStyle;rounded=0;orthogonalLoop=1;jettySize=auto;html=1;" edge="1" parent="1" source="YIvmek2fyZ96y0kqWUnA-5" target="YIvmek2fyZ96y0kqWUnA-14">
          <mxGeometry relative="1" as="geometry" />
        </mxCell>
        <mxCell id="YIvmek2fyZ96y0kqWUnA-5" value="Chargeable light?" style="rhombus;whiteSpace=wrap;html=1;" vertex="1" parent="1">
          <mxGeometry x="420" y="240" width="80" height="80" as="geometry" />
        </mxCell>
        <mxCell id="YIvmek2fyZ96y0kqWUnA-11" style="edgeStyle=orthogonalEdgeStyle;rounded=0;orthogonalLoop=1;jettySize=auto;html=1;exitX=0.5;exitY=0;exitDx=0;exitDy=0;entryX=0;entryY=0.5;entryDx=0;entryDy=0;" edge="1" parent="1" source="YIvmek2fyZ96y0kqWUnA-8" target="YIvmek2fyZ96y0kqWUnA-1">
          <mxGeometry relative="1" as="geometry" />
        </mxCell>
        <mxCell id="YIvmek2fyZ96y0kqWUnA-8" value="Sleep for five minutes" style="whiteSpace=wrap;html=1;" vertex="1" parent="1">
          <mxGeometry x="240" y="250" width="120" height="60" as="geometry" />
        </mxCell>
        <mxCell id="YIvmek2fyZ96y0kqWUnA-14" value="Highest light sector check" style="whiteSpace=wrap;html=1;" vertex="1" parent="1">
          <mxGeometry x="400" y="410" width="120" height="60" as="geometry" />
        </mxCell>
      </root>
    </mxGraphModel>
  </diagram>
</mxfile>
